PathFileType	4	(X/Y/Z)	C:/Users/opensim2020/Desktop/walking_exp_matlab/subject06_walking17_straight_02.trc	
DataRate	CameraRate	NumFrames	NumMarkers	Units	OrigDataRate	OrigDataStartFrame	OrigNumFrames	
100.00	100.00	5	45	mm	100.00	2198	334	
Frame#	Time	LFHD			RFHD			LBHD			RBHD			C7			T10			CLAV			STRN			RBAK			LSHO			LUPA			LELB			LFRM			LWRA			LWRB			LFIN			RSHO			RUPA			RELB			RFRM			RWRA			RWRB			RFIN			LASI			RASI			LPSI			RPSI			LTHI			LKNE			LTIB			LANK			LHEE			LTOE			RTHI			RKNE			RTIB			RANK			RHEE			RTOE			*39			*40			*41			*42			*43			*44			
		X1	Y1	Z1	X2	Y2	Z2	X3	Y3	Z3	X4	Y4	Z4	X5	Y5	Z5	X6	Y6	Z6	X7	Y7	Z7	X8	Y8	Z8	X9	Y9	Z9	X10	Y10	Z10	X11	Y11	Z11	X12	Y12	Z12	X13	Y13	Z13	X14	Y14	Z14	X15	Y15	Z15	X16	Y16	Z16	X17	Y17	Z17	X18	Y18	Z18	X19	Y19	Z19	X20	Y20	Z20	X21	Y21	Z21	X22	Y22	Z22	X23	Y23	Z23	X24	Y24	Z24	X25	Y25	Z25	X26	Y26	Z26	X27	Y27	Z27	X28	Y28	Z28	X29	Y29	Z29	X30	Y30	Z30	X31	Y31	Z31	X32	Y32	Z32	X33	Y33	Z33	X34	Y34	Z34	X35	Y35	Z35	X36	Y36	Z36	X37	Y37	Z37	X38	Y38	Z38	X39	Y39	Z39	X40	Y40	Z40	X41	Y41	Z41	X42	Y42	Z42	X43	Y43	Z43	X44	Y44	Z44	X45	Y45	Z45	

42	0.410	1523.81152	970.98224	1658.63757	1393.63354	979.50244	1639.71008	1537.11084	1101.38086	1599.08826	1409.20630	1108.52734	1585.81421	1485.44946	1101.36841	1442.16211	1474.90308	1134.78735	1112.81104	1481.80957	990.89319	1365.24670	1490.91541	951.81281	1188.06116	1407.87976	1175.24780	1270.06982	1645.44128	1040.47668	1397.20117	1719.21606	1012.94952	1196.61621	1732.35010	989.98639	1085.97034	1735.35413	896.69049	966.73718	1674.10242	792.15112	907.90424	1712.17603	835.28662	866.28448	1698.80249	757.63666	821.75568	1320.77869	1038.48767	1394.72559	1239.17749	1091.05798	1196.51709	1229.38879	1091.30774	1074.57471	1212.08301	1087.26453	954.05859	1239.64319	1036.41687	810.13312	1203.84497	1093.04810	816.00049	1199.94507	1062.35718	737.12146	1588.11243	965.28558	945.35278	1365.90173	952.59137	958.29718	1549.50964	1120.21582	981.25146	1380.90649	1104.96765	986.47186	1630.34937	1088.53149	642.53516	1608.16199	1130.83679	483.15872	1601.06140	1260.02466	258.06348	1553.85730	1326.70483	98.34631	1509.64966	1370.11877	95.56709	1548.65808	1194.47974	39.26415	1296.12195	963.64532	632.04248	1327.39050	929.57062	514.70184	1324.83594	907.54968	252.26276	1366.02844	862.59229	70.67822	1416.52039	890.55438	44.52923	1362.57739	703.53772	49.75949	1470.07263	1076.70251	1689.29749															 
43	0.420	1521.96179	963.75763	1659.44299	1391.88208	972.20514	1640.31543	1535.26978	1094.05884	1599.48901	1407.29114	1100.93213	1585.98230	1483.85571	1093.35510	1442.69116	1473.91638	1126.21167	1113.25684	1480.31824	982.83014	1365.87415	1489.52954	943.36603	1188.76611	1406.33423	1166.99829	1270.44836	1643.99304	1032.48975	1397.60376	1717.40271	1006.01154	1196.57910	1730.42981	983.25104	1085.88831	1733.90149	890.56708	966.31274	1672.75964	786.20502	906.75397	1710.94067	829.85889	865.90857	1697.66699	751.95477	820.80756	1319.26453	1030.34387	1395.02283	1237.74915	1082.27795	1196.55798	1228.01758	1082.59631	1074.67175	1210.86938	1078.88513	954.04944	1238.82092	1028.60754	810.08832	1202.68030	1085.12500	815.89203	1199.00671	1054.93469	737.07819	1586.77466	957.06427	945.48468	1364.86938	943.89771	959.25964	1548.67688	1111.60339	981.93433	1380.07129	1096.62903	987.98169	1629.21448	1081.61218	642.87805	1607.09253	1124.86377	483.72025	1600.63062	1256.88806	260.31396	1554.03027	1325.25195	101.10224	1509.74866	1368.63892	98.91007	1548.43811	1193.98547	39.02513	1294.67175	955.29443	633.75098	1325.36035	922.07776	515.91711	1323.02368	902.72174	252.63579	1365.36902	860.57214	70.80762	1415.56885	889.43878	45.14345	1362.10779	702.19788	46.78479	1468.06750	1069.59155	1689.70313															 
44	0.430	1520.01917	956.51593	1660.41272	1389.90381	964.86078	1641.04565	1533.32275	1086.57117	1599.97681	1405.32568	1093.39063	1586.24475	1482.31909	1085.32129	1443.26880	1472.89709	1117.66162	1113.97668	1478.87598	974.56567	1366.74719	1488.14587	934.64874	1189.63611	1404.98499	1158.67468	1271.01477	1642.55310	1024.36658	1398.28796	1715.53540	998.98389	1196.85254	1728.39624	976.43475	1086.11353	1732.16870	884.47943	965.97278	1671.87061	779.89465	906.10327	1709.34912	824.36188	865.11029	1696.62964	746.61322	819.69122	1317.73755	1022.23615	1395.56396	1236.25745	1073.62134	1196.94067	1226.75940	1073.70972	1075.01306	1209.62830	1070.31335	954.37170	1237.89417	1020.79315	810.11151	1201.26343	1077.07678	816.49078	1197.95496	1047.23486	737.13306	1585.13391	948.68158	945.85718	1363.75549	935.26422	960.54413	1547.71790	1103.05017	982.86981	1379.23145	1088.38879	989.65656	1627.97632	1074.50586	643.27521	1605.84265	1118.60315	484.51346	1600.35693	1253.70630	262.92242	1554.12659	1323.60645	104.06857	1509.89636	1366.79065	102.35896	1548.37012	1193.63855	39.05618	1293.11182	947.00916	635.44812	1323.55212	914.38641	517.20697	1321.59668	898.11670	252.87863	1365.22375	858.98450	70.87877	1415.09290	888.46545	45.95279	1361.37000	701.27020	44.96104	1465.99548	1062.45361	1690.18396															 
45	0.440	1517.92688	949.32611	1661.60132	1387.91479	957.53479	1641.87634	1531.34583	1079.06335	1600.57544	1403.39319	1085.80627	1586.53333	1480.79443	1077.20154	1443.90430	1471.81860	1109.14050	1114.85852	1477.33289	966.17926	1367.68103	1486.60229	925.93768	1190.67761	1403.78674	1150.29663	1271.69666	1641.09216	1016.16986	1399.20813	1713.64673	991.76831	1197.42371	1726.34326	969.51532	1086.64099	1730.29578	878.48108	965.78168	1670.48877	774.33484	904.84070	1707.54236	818.69446	864.08319	1695.71655	741.59827	818.45709	1316.27527	1014.19379	1396.37561	1234.84827	1064.87061	1197.64490	1225.49316	1064.76477	1075.63770	1208.35303	1061.58264	955.02185	1236.91577	1012.58893	810.64685	1200.00391	1068.67444	816.98431	1196.92834	1039.13440	737.61761	1583.32410	940.54285	946.49237	1362.93250	927.40625	961.99799	1546.66052	1094.60010	984.04004	1378.24585	1080.19800	991.33466	1626.63257	1067.13892	643.72089	1604.23901	1111.94165	485.30768	1599.40149	1250.09009	265.40659	1554.16516	1321.76758	107.25683	1509.90247	1364.93005	106.29946	1548.28845	1193.25391	39.11577	1291.62329	938.91406	637.09167	1322.08777	906.92340	518.45758	1320.44482	893.52936	253.27220	1365.05420	857.63904	71.13990	1414.55212	887.75067	46.27810	1361.08667	700.13196	43.73008	1463.85754	1055.37427	1690.78210															 
46	0.450	1515.71912	942.00366	1662.99146	1385.83252	950.14032	1642.86646	1529.35828	1071.48926	1601.33105	1401.50024	1078.15955	1586.85254	1479.28076	1068.90613	1444.77173	1470.62097	1100.71851	1115.96057	1475.77905	957.65521	1368.79639	1484.98999	917.36884	1191.88501	1402.72925	1141.89001	1272.54504	1639.60474	1007.83759	1400.25427	1711.73547	984.31116	1198.18359	1724.24280	962.50079	1087.32996	1728.67590	872.53473	965.63702	1669.76978	768.37262	903.92780	1706.59778	813.97247	863.59680	1694.88000	736.82556	817.00653	1314.77209	1006.06793	1397.40295	1233.80212	1056.11841	1198.47961	1224.23193	1055.88098	1076.57947	1207.05713	1052.76221	955.94617	1235.84265	1004.27521	811.36780	1198.43762	1060.07092	817.99945	1195.71460	1030.82031	738.41467	1581.38086	932.67633	947.34375	1361.48621	919.30109	963.64075	1545.46655	1086.26245	985.45654	1377.07507	1072.03833	993.09784	1625.09155	1059.63904	644.26343	1602.48608	1104.39124	485.92245	1598.31116	1245.59912	267.97821	1554.14014	1319.63379	110.71374	1509.81287	1362.59937	110.43142	1548.18286	1192.85291	39.22709	1290.39026	931.17834	638.50812	1320.91370	899.82001	519.58478	1319.96729	888.96863	253.94745	1365.08740	856.41217	71.38030	1414.18237	887.42267	46.62961	1362.32678	699.12842	42.43164	1461.66919	1048.32800	1691.51392															 
